<svg xmlns="http://www.w3.org/2000/svg" width="32" height="32" viewBox="0 0 32 32" version="1.1"><title>modern-course-icon</title><g stroke="none" stroke-width="1" fill="none" fill-rule="evenodd"><circle fill="transparent" cx="16" cy="16" r="16"/><path d="M20.9 15.5L16.4 16.9C16.3 17 16.1 17 16 17 15.9 17 15.8 17 15.6 16.9L11.1 15.5 11 18C10.9 19.1 13.2 20 16 20 18.8 20 21.1 19.1 21 18L20.9 15.5ZM25 13C25 12.9 24.9 12.8 24.8 12.8L16.1 10C16 10 16 10 16 10 16 10 16 10 15.9 10L7.2 12.8C7.1 12.8 7 12.9 7 13 7 13.1 7.1 13.2 7.2 13.2L9.8 14.1C9.3 14.7 9.1 15.7 9 16.6 8.7 16.8 8.5 17.1 8.5 17.5 8.5 17.9 8.7 18.2 9 18.3L8.5 21.7C8.5 21.8 8.5 21.9 8.6 21.9 8.6 22 8.7 22 8.8 22L10.3 22C10.3 22 10.4 22 10.4 21.9 10.5 21.9 10.5 21.8 10.5 21.7L10 18.3C10.3 18.2 10.5 17.9 10.5 17.5 10.5 17.1 10.3 16.8 10 16.6 10.1 15.6 10.4 14.7 10.8 14.4L15.9 16C16 16 16 16 16 16 16 16 16 16 16.1 16L24.8 13.2C24.9 13.2 25 13.1 25 13L25 13Z" fill="#FFF"/></g></svg>