<svg height="20" viewBox="0 0 20 20" width="20" xmlns="http://www.w3.org/2000/svg" xmlns:xlink="http://www.w3.org/1999/xlink"><defs><path id="a" d="m2 2.99703014c0-.55064454.43788135-.99703014 1.00292933-.99703014h4.99414134c.55390257 0 1.00292933.45303631 1.00292933.99703014v7.00296986h-7z"/><mask id="b" fill="#fff" height="8" width="7" x="0" y="0"><use xlink:href="#a"/></mask><path id="c" d="m11 11h7v7.0029699c0 .5506445-.4378814.9970301-1.0029293.9970301h-4.9941414c-.5539025 0-1.0029293-.4530363-1.0029293-.9970301z"/><mask id="d" fill="#fff" height="8" width="7" x="0" y="0"><use xlink:href="#c"/></mask></defs><g fill="none" fill-rule="evenodd"><path d="m5.83366337 17.6481848.9610561-.9610561-2.48184818-2.4818482-.96105611.9610561v1.130033h1.35181518v1.3518152zm5.52343233-9.80066005c0-.13729373-.0950495-.23234323-.2323432-.23234323-.0633664 0-.1267327.02112211-.179538.07392739l-5.72409239 5.72409239c-.05280528.0528053-.07392739.1161716-.07392739.179538 0 .1372937.0950495.2323432.23234323.2323432.06336634 0 .12673268-.0211221.17953796-.0739274l5.72409239-5.72409239c.0528053-.05280528.0739274-.11617162.0739274-.17953796zm-.570297-2.02772277 4.3933993 4.39339932-8.78679866 8.7867987h-4.39339934v-4.3933993zm7.2132013 1.01386139c0 .3590759-.1478548.70759076-.3907591.95049505l-1.7531353 1.75313531-4.3933993-4.39339934 1.7531353-1.74257426c.2429043-.25346534.5914191-.40132013.950495-.40132013s.7075908.14785479.9610561.40132013l2.4818482 2.47128713c.2429043.25346535.3907591.6019802.3907591.96105611z" fill="#a393a1"/><use mask="url(#b)" stroke="#a393a1" stroke-width="2" transform="matrix(.70710678 -.70710678 .70710678 .70710678 -2.631728 5.646447)" xlink:href="#a"/><use mask="url(#d)" stroke="#a393a1" stroke-width="2" transform="matrix(.70710678 -.70710678 .70710678 .70710678 -6.35965 14.646447)" xlink:href="#c"/><ellipse cx="4.5" cy="5.5" fill="#a393a1" rx="1.5" ry="1.5" transform="matrix(.70710678 -.70710678 .70710678 .70710678 -2.571068 4.792893)"/><g stroke-linecap="square"><path d="m13 14-2 2" stroke="#a393a1"/><path d="m13.8918058 17.1081942-.7836116.7836116" stroke="#a393a1"/><path d="m5.59906132 8.40093868-.19812264.19812264" stroke="#6b546a"/></g></g></svg>