<svg xmlns="http://www.w3.org/2000/svg" width="24" height="24" viewBox="0 0 6.35 6.35"><path d="M5.242 1.6513c.1093.1093.201.3278.201.4843v3.4018c0 .1565-.127.2835-.2836.2835H1.1906c-.1565 0-.2835-.127-.2835-.2836V.8127c0-.1565.127-.2835.2836-.2835h2.646c.1564 0 .375.0915.484.2008zM3.931.9308V2.041h1.1103c-.0178-.05-.0443-.1003-.065-.121L4.052.9957C4.0314.975 3.9812.9485 3.931.9307zm1.134 4.512V2.4192H3.8364c-.1565 0-.2835-.127-.2835-.2834V.9072H1.285V5.443zM2.041 2.8916c0-.053.0414-.0945.0946-.0945h2.0788c.0532 0 .0945.0414.0945.0945v.189c0 .0532-.0414.0945-.0946.0945H2.1356c-.0532 0-.0945-.0413-.0945-.0945zm2.1734.6615c.0532 0 .0945.0413.0945.0945v.189c0 .053-.0414.0945-.0946.0945H2.1356c-.0532 0-.0945-.0414-.0945-.0945v-.189c0-.0532.0414-.0945.0946-.0945zm0 .756c.0532 0 .0945.0413.0945.0944v.189c0 .0532-.0414.0945-.0946.0945H2.1356c-.0532 0-.0945-.0414-.0945-.0946v-.189c0-.053.0414-.0945.0946-.0945z" fill="#7f707d" fill-rule="evenodd"/></svg>